<?xml version="1.0" standalone="no"?>
<!DOCTYPE svg PUBLIC "-//W3C//DTD SVG 20010904//EN"
 "http://www.w3.org/TR/2001/REC-SVG-20010904/DTD/svg10.dtd">
<svg version="1.0" xmlns="http://www.w3.org/2000/svg"
 width="300.000000pt" height="252.000000pt" viewBox="0 0 300.000000 252.000000"
 preserveAspectRatio="xMidYMid meet">
<metadata>
Created by potrace 1.10, written by Peter Selinger 2001-2011
</metadata>
<g transform="translate(0.000000,252.000000) scale(0.100000,-0.100000)"
fill="#000000" stroke="none">
<path d="M1445 2448 c-353 -19 -676 -195 -894 -484 -112 -150 -180 -296 -227
-484 -15 -60 -19 -113 -19 -265 0 -175 2 -198 28 -296 32 -124 60 -196 114
-294 156 -283 388 -478 693 -585 l115 -40 284 0 c187 0 297 4 320 12 300 96
491 223 662 438 123 155 211 355 248 566 19 105 15 328 -9 443 -87 428 -389
778 -798 925 -157 56 -313 76 -517 64z m348 -49 c120 -24 203 -54 326 -120
114 -61 194 -121 280 -208 234 -239 354 -529 354 -856 0 -204 -43 -381 -134
-556 -87 -166 -246 -348 -387 -442 -104 -69 -265 -144 -379 -174 -92 -25 -112
-27 -313 -27 -202 0 -221 2 -315 27 -119 32 -315 126 -406 196 -229 174 -382
403 -460 691 -21 75 -24 107 -24 285 0 188 2 206 28 298 52 187 127 333 243
472 292 353 727 504 1187 414z"/>
<path d="M1335 2374 c-226 -41 -435 -148 -604 -309 -206 -196 -321 -424 -358
-710 -38 -286 40 -592 209 -824 226 -309 580 -491 957 -491 450 0 854 248
1056 650 166 331 165 723 -3 1055 -167 330 -486 565 -856 630 -109 18 -293 18
-401 -1z m490 -34 c263 -71 491 -224 648 -435 78 -103 158 -273 194 -405 26
-98 28 -118 27 -290 0 -170 -2 -193 -27 -285 -118 -429 -465 -758 -892 -846
-117 -25 -336 -26 -455 -4 -540 103 -940 588 -940 1140 0 536 373 1007 895
1128 105 25 116 25 300 22 137 -2 186 -7 250 -25z"/>
<path d="M1635 1799 c-218 -21 -436 -97 -511 -180 -11 -12 -21 -44 -25 -82 -3
-34 -10 -79 -14 -99 -10 -50 7 -49 44 2 21 29 31 57 36 102 8 71 26 92 114
135 l56 28 255 0 c180 0 268 4 298 13 41 12 112 65 112 83 0 11 -241 10 -365
-2z m271 -30 c2 -3 -18 -13 -44 -22 -49 -16 -273 -20 -288 -4 -12 12 0 16 67
23 35 3 66 8 68 10 7 7 192 0 197 -7z"/>
<path d="M1865 1678 c-45 -17 -73 -18 -266 -13 -260 6 -304 0 -363 -55 -47
-45 -45 -57 8 -35 30 13 78 15 269 13 222 -3 234 -2 287 20 52 21 130 76 120
84 -3 2 -27 -4 -55 -14z m-267 -49 c13 0 20 -3 17 -9 -3 -5 -27 -8 -53 -6 -26
2 -69 5 -97 6 -41 2 -45 3 -25 10 14 4 50 6 80 3 30 -3 65 -5 78 -4z"/>
<path d="M1825 1579 c-16 -10 -63 -26 -104 -35 -74 -17 -128 -16 -357 2 -69 6
-87 4 -127 -14 -26 -12 -47 -25 -47 -30 0 -6 27 -8 64 -5 43 4 106 -2 191 -17
221 -39 308 -19 409 98 23 27 11 27 -29 1z"/>
<path d="M1166 1439 c-31 -24 -36 -45 -7 -29 34 17 82 11 185 -25 129 -45 196
-47 281 -7 33 16 66 36 73 45 11 13 3 12 -50 -5 -75 -23 -141 -19 -275 18
-110 30 -171 31 -207 3z"/>
<path d="M2130 1240 c-49 -12 -70 -42 -70 -100 0 -41 4 -52 29 -73 16 -13 51
-30 78 -36 26 -7 56 -20 66 -28 24 -22 22 -78 -4 -104 -28 -28 -104 -22 -131
11 -10 13 -24 20 -33 16 -46 -17 21 -77 95 -84 52 -5 102 15 120 47 5 11 10
42 10 68 0 61 -20 85 -92 108 -81 26 -98 40 -98 80 0 64 81 88 138 40 22 -18
32 -21 40 -13 17 17 15 25 -15 46 -35 24 -87 32 -133 22z"/>
<path d="M790 1041 c0 -198 0 -199 21 -194 21 6 21 10 17 174 -2 93 0 169 4
169 5 0 8 -6 8 -12 0 -7 34 -84 77 -170 72 -147 79 -158 105 -158 l27 0 3 195
3 195 -24 0 -23 0 3 -170 c4 -158 -1 -202 -16 -147 -3 12 -38 88 -78 169 -66
136 -74 147 -99 148 l-28 0 0 -199z"/>
<path d="M1140 1108 c1 -154 9 -202 43 -236 33 -33 110 -41 156 -17 51 26 61
63 61 235 0 149 0 150 -22 150 -23 0 -23 -1 -20 -117 4 -140 -3 -198 -29 -224
-28 -28 -84 -25 -114 6 -24 24 -25 28 -25 180 l0 155 -25 0 -25 0 0 -132z"/>
<path d="M1460 1219 c0 -19 5 -21 55 -17 l55 3 0 -177 c0 -171 1 -178 20 -178
19 0 20 7 20 175 l0 175 60 0 c53 0 60 2 60 20 0 19 -7 20 -135 20 -130 0
-135 -1 -135 -21z"/>
<path d="M1782 1045 l-1 -195 25 0 c24 0 24 1 24 91 l0 91 74 -4 c64 -3 76 -1
79 14 7 25 0 28 -80 28 l-73 0 0 68 0 67 85 -3 c80 -3 85 -2 85 17 0 20 -5 21
-109 21 l-109 0 0 -195z"/>
<path d="M795 680 c0 -53 2 -60 20 -60 18 0 20 5 17 60 -3 48 -7 60 -20 60
-14 0 -17 -11 -17 -60z"/>
<path d="M915 730 c-3 -5 2 -32 12 -60 12 -34 23 -50 35 -50 22 0 22 -3 -3 64
-21 55 -32 66 -44 46z"/>
<path d="M1000 737 c0 -3 7 -18 15 -33 8 -16 15 -39 15 -51 0 -25 17 -40 32
-25 6 6 4 26 -5 58 -10 37 -19 50 -35 52 -12 2 -22 1 -22 -1z"/>
<path d="M1084 718 c3 -13 6 -40 6 -60 0 -29 4 -38 18 -38 14 0 17 10 17 60 0
56 -1 60 -24 60 -19 0 -22 -4 -17 -22z"/>
<path d="M1150 680 c0 -50 3 -60 18 -60 14 0 17 10 17 60 1 51 -2 60 -17 60
-15 0 -18 -9 -18 -60z"/>
<path d="M1215 680 c0 -51 2 -60 17 -60 15 0 18 9 18 60 0 51 -3 60 -18 60
-15 0 -17 -9 -17 -60z"/>
<path d="M1300 733 c0 -5 7 -17 15 -27 8 -11 15 -35 15 -53 0 -25 4 -33 18
-33 15 0 18 8 18 35 -1 19 -4 35 -7 35 -4 0 -10 11 -13 25 -4 16 -13 25 -26
25 -11 0 -20 -3 -20 -7z"/>
<path d="M1448 680 c-3 -54 -1 -60 17 -60 18 0 20 6 17 60 -3 41 -8 60 -17 60
-9 0 -14 -19 -17 -60z"/>
<path d="M1510 731 c0 -5 6 -14 13 -20 8 -6 22 -29 32 -51 17 -39 45 -55 45
-26 0 29 -52 106 -71 106 -10 0 -19 -4 -19 -9z"/>
<path d="M1666 718 c-9 -12 -16 -29 -16 -38 0 -23 29 -60 48 -60 12 0 13 3 4
12 -7 7 -12 28 -12 48 0 20 5 41 12 48 9 9 8 12 -4 12 -9 0 -24 -10 -32 -22z"/>
<path d="M1780 680 c0 -51 3 -60 18 -60 14 0 17 9 17 60 0 50 -3 60 -17 60
-15 0 -18 -10 -18 -60z"/>
<path d="M1850 680 c0 -50 3 -60 18 -60 14 0 17 10 17 60 0 50 -3 60 -17 60
-15 0 -18 -10 -18 -60z"/>
<path d="M1910 680 c0 -52 3 -60 19 -60 16 0 18 8 17 60 0 51 -3 60 -18 60
-15 0 -18 -9 -18 -60z"/>
<path d="M1967 708 c1 -18 2 -45 2 -60 1 -20 6 -28 20 -28 14 0 17 6 13 25 -2
14 -9 28 -14 31 -5 3 -2 11 7 18 20 14 10 46 -14 46 -12 0 -16 -8 -14 -32z"/>
<path d="M2038 680 c-3 -52 -1 -60 15 -60 14 0 17 10 17 60 0 45 -4 60 -14 60
-10 0 -15 -17 -18 -60z"/>
<path d="M2097 719 c-6 -23 23 -59 49 -59 12 0 15 -6 11 -21 -3 -13 -1 -19 6
-16 7 2 12 16 12 32 0 21 -8 33 -30 45 -16 10 -29 23 -27 29 4 20 -16 11 -21
-10z"/>
<path d="M2224 680 c0 -54 2 -60 20 -60 19 0 21 5 18 60 -3 48 -7 60 -20 60
-14 0 -17 -11 -18 -60z"/>
</g>
</svg>
